<svg width="82" height="76" viewBox="0 0 82 76" fill="none" xmlns="http://www.w3.org/2000/svg">
<path d="M77.0434 1.00098L45.7913 24.1254L51.6029 10.4974L77.0434 1.00098Z" fill="#E17726" stroke="#E17726" stroke-width="0.25" stroke-linecap="round" stroke-linejoin="round"/>
<path d="M4.95642 1.00098L35.9303 24.3412L30.3971 10.4974L4.95642 1.00098Z" fill="#E27625" stroke="#E27625" stroke-width="0.25" stroke-linecap="round" stroke-linejoin="round"/>
<path d="M65.7907 54.6182L57.4755 67.3212L75.2808 72.2236L80.3814 54.8959L65.7907 54.6182Z" fill="#E27625" stroke="#E27625" stroke-width="0.25" stroke-linecap="round" stroke-linejoin="round"/>
<path d="M1.64905 54.8959L6.7186 72.2236L24.4931 67.3212L16.2086 54.6182L1.64905 54.8959Z" fill="#E27625" stroke="#E27625" stroke-width="0.25" stroke-linecap="round" stroke-linejoin="round"/>
<path d="M23.5362 33.1592L18.5903 40.6208L36.2102 41.4224L35.6229 22.4604L23.5362 33.1592Z" fill="#E27625" stroke="#E27625" stroke-width="0.25" stroke-linecap="round" stroke-linejoin="round"/>
<path d="M58.465 33.1593L46.1932 22.2446L45.7913 41.4225L63.411 40.6208L58.465 33.1593Z" fill="#E27625" stroke="#E27625" stroke-width="0.25" stroke-linecap="round" stroke-linejoin="round"/>
<path d="M24.4934 67.3216L35.1579 62.1727L25.9772 55.0195L24.4934 67.3216Z" fill="#E27625" stroke="#E27625" stroke-width="0.25" stroke-linecap="round" stroke-linejoin="round"/>
<path d="M46.8423 62.1727L57.4759 67.3216L56.023 55.0195L46.8423 62.1727Z" fill="#E27625" stroke="#E27625" stroke-width="0.25" stroke-linecap="round" stroke-linejoin="round"/>
<path d="M57.4759 67.3218L46.8423 62.1729L47.7077 69.0793L47.6149 72.0084L57.4759 67.3218Z" fill="#D5BFB2" stroke="#D5BFB2" stroke-width="0.25" stroke-linecap="round" stroke-linejoin="round"/>
<path d="M24.4934 67.3218L34.3853 72.0084L34.3235 69.0793L35.1579 62.1729L24.4934 67.3218Z" fill="#D5BFB2" stroke="#D5BFB2" stroke-width="0.25" stroke-linecap="round" stroke-linejoin="round"/>
<path d="M34.57 50.4563L25.7291 47.8665L31.9733 44.999L34.57 50.4563Z" fill="#233447" stroke="#233447" stroke-width="0.25" stroke-linecap="round" stroke-linejoin="round"/>
<path d="M47.4294 50.4563L50.0262 44.999L56.3013 47.8665L47.4294 50.4563Z" fill="#233447" stroke="#233447" stroke-width="0.25" stroke-linecap="round" stroke-linejoin="round"/>
<path d="M24.4927 67.3212L26.0384 54.6182L16.2084 54.8959L24.4927 67.3212Z" fill="#CC6228" stroke="#CC6228" stroke-width="0.25" stroke-linecap="round" stroke-linejoin="round"/>
<path d="M55.9611 54.6182L57.4758 67.3212L65.7911 54.8959L55.9611 54.6182Z" fill="#CC6228" stroke="#CC6228" stroke-width="0.25" stroke-linecap="round" stroke-linejoin="round"/>
<path d="M63.411 40.6206L45.7913 41.4222L47.4295 50.4564L50.0262 44.9988L56.3014 47.8663L63.411 40.6206Z" fill="#CC6228" stroke="#CC6228" stroke-width="0.25" stroke-linecap="round" stroke-linejoin="round"/>
<path d="M25.731 47.8663L31.9752 44.9988L34.5719 50.4564L36.2102 41.4222L18.5903 40.6206L25.731 47.8663Z" fill="#CC6228" stroke="#CC6228" stroke-width="0.25" stroke-linecap="round" stroke-linejoin="round"/>
<path d="M18.5903 40.6206L25.9784 55.0195L25.7309 47.8663L18.5903 40.6206Z" fill="#E27525" stroke="#E27525" stroke-width="0.25" stroke-linecap="round" stroke-linejoin="round"/>
<path d="M56.3025 47.8663L56.0243 55.0195L63.4123 40.6206L56.3025 47.8663Z" fill="#E27525" stroke="#E27525" stroke-width="0.25" stroke-linecap="round" stroke-linejoin="round"/>
<path d="M36.2095 41.4224L34.571 50.4565L36.6421 61.1243L37.1059 47.0648L36.2095 41.4224Z" fill="#E27525" stroke="#E27525" stroke-width="0.25" stroke-linecap="round" stroke-linejoin="round"/>
<path d="M45.7916 41.4224L44.9259 47.0341L45.3587 61.1243L47.4298 50.4565L45.7916 41.4224Z" fill="#E27525" stroke="#E27525" stroke-width="0.25" stroke-linecap="round" stroke-linejoin="round"/>
<path d="M47.4288 50.4567L45.3577 61.1246L46.8415 62.173L56.0224 55.0199L56.3006 47.8667L47.4288 50.4567Z" fill="#F5841F" stroke="#F5841F" stroke-width="0.25" stroke-linecap="round" stroke-linejoin="round"/>
<path d="M25.7291 47.8667L25.9766 55.0199L35.1573 62.173L36.6411 61.1246L34.57 50.4567L25.7291 47.8667Z" fill="#F5841F" stroke="#F5841F" stroke-width="0.25" stroke-linecap="round" stroke-linejoin="round"/>
<path d="M47.6156 72.0084L47.7082 69.0793L46.9047 68.4009H35.0963L34.3235 69.0793L34.3853 72.0084L24.4934 67.3218L27.9555 70.1583L34.9726 74.9991H46.9972L54.0452 70.1583L57.4764 67.3218L47.6156 72.0084Z" fill="#C0AC9D" stroke="#C0AC9D" stroke-width="0.25" stroke-linecap="round" stroke-linejoin="round"/>
<path d="M46.842 62.1727L45.3581 61.1245H36.6409L35.1573 62.1727L34.3226 69.0793L35.0955 68.4009H46.9038L47.7076 69.0793L46.842 62.1727Z" fill="#161616" stroke="#161616" stroke-width="0.25" stroke-linecap="round" stroke-linejoin="round"/>
<path d="M78.3724 25.6361L81 12.8715L77.0432 1.00098L46.8423 23.3546L58.465 33.1592L74.8793 37.9384L78.4961 33.7144L76.9197 32.5734L79.4234 30.292L77.5069 28.8119L80.0109 26.9003L78.3724 25.6361Z" fill="#763E1A" stroke="#763E1A" stroke-width="0.25" stroke-linecap="round" stroke-linejoin="round"/>
<path d="M1 12.8715L3.65844 25.6361L1.95828 26.9003L4.49306 28.8119L2.57652 30.292L5.08038 32.5734L3.50387 33.7144L7.12058 37.9384L23.535 33.1592L35.1577 23.3546L4.95674 1.00098L1 12.8715Z" fill="#763E1A" stroke="#763E1A" stroke-width="0.25" stroke-linecap="round" stroke-linejoin="round"/>
<path d="M74.8806 37.9381L58.4663 33.1592L63.4123 40.6207L56.0243 55.0193L65.7925 54.8961H80.3829L74.8806 37.9381Z" fill="#F5841F" stroke="#F5841F" stroke-width="0.25" stroke-linecap="round" stroke-linejoin="round"/>
<path d="M23.5346 33.1592L7.12046 37.9381L1.64905 54.8961H16.2086L25.9767 55.0193L18.5888 40.6207L23.5346 33.1592Z" fill="#F5841F" stroke="#F5841F" stroke-width="0.25" stroke-linecap="round" stroke-linejoin="round"/>
<path d="M45.792 41.4221L46.843 23.3541L51.6034 10.4971H30.3978L35.1582 23.3541L36.2092 41.4221L36.6111 47.0952L36.642 61.1241H45.3592L45.3901 47.0952L45.792 41.4221Z" fill="#F5841F" stroke="#F5841F" stroke-width="0.25" stroke-linecap="round" stroke-linejoin="round"/>
</svg>
