<svg width="32" height="32" viewBox="0 0 32 32" fill="none" xmlns="http://www.w3.org/2000/svg">
<rect width="32" height="32" rx="8" fill="#0B0C0F"/>
<path d="M13.5 21.4165H18.5M11.5 7.6665H20.5C20.9667 7.6665 21.2 7.6665 21.3783 7.75733C21.5351 7.83723 21.6626 7.96471 21.7425 8.12151C21.8333 8.29977 21.8333 8.53313 21.8333 8.99984V10.7286C21.8333 11.1363 21.8333 11.3401 21.7872 11.5319C21.7464 11.702 21.6791 11.8645 21.5877 12.0136C21.4846 12.1818 21.3405 12.326 21.0522 12.6142L18.6094 15.057C18.2794 15.387 18.1144 15.552 18.0526 15.7423C17.9982 15.9097 17.9982 16.09 18.0526 16.2574C18.1144 16.4476 18.2794 16.6126 18.6094 16.9426L21.0522 19.3855C21.3405 19.6737 21.4846 19.8178 21.5877 19.986C21.6791 20.1351 21.7464 20.2977 21.7872 20.4678C21.8333 20.6596 21.8333 20.8634 21.8333 21.2711V22.9998C21.8333 23.4665 21.8333 23.6999 21.7425 23.8782C21.6626 24.035 21.5351 24.1624 21.3783 24.2423C21.2 24.3332 20.9667 24.3332 20.5 24.3332H11.5C11.0332 24.3332 10.7999 24.3332 10.6216 24.2423C10.4648 24.1624 10.3373 24.035 10.2575 23.8782C10.1666 23.6999 10.1666 23.4665 10.1666 22.9998V21.2711C10.1666 20.8634 10.1666 20.6596 10.2127 20.4678C10.2535 20.2977 10.3208 20.1351 10.4122 19.986C10.5153 19.8178 10.6594 19.6737 10.9477 19.3855L13.3905 16.9426C13.7205 16.6126 13.8855 16.4476 13.9473 16.2574C14.0017 16.09 14.0017 15.9097 13.9473 15.7423C13.8855 15.5521 13.7205 15.387 13.3905 15.057L10.9477 12.6142C10.6594 12.326 10.5153 12.1818 10.4122 12.0136C10.3208 11.8645 10.2535 11.702 10.2127 11.5319C10.1666 11.3401 10.1666 11.1363 10.1666 10.7286V8.99984C10.1666 8.53313 10.1666 8.29977 10.2575 8.12151C10.3373 7.96471 10.4648 7.83723 10.6216 7.75733C10.7999 7.6665 11.0332 7.6665 11.5 7.6665Z" stroke="white" stroke-width="1.66667" stroke-linecap="round" stroke-linejoin="round"/>
</svg>
