<svg width="49" height="49" viewBox="0 0 49 49" fill="none" xmlns="http://www.w3.org/2000/svg">
<circle cx="24.0278" cy="24.5" r="24" fill="#0B0C0F"/>
<path fill-rule="evenodd" clip-rule="evenodd" d="M14.0278 28.5C13.4755 28.5 13.0278 28.9477 13.0278 29.5C13.0278 30.0523 13.4755 30.5 14.0278 30.5H25.0278C25.5801 30.5 26.0278 30.0523 26.0278 29.5C26.0278 28.9477 25.5801 28.5 25.0278 28.5H14.0278ZM31.0278 28.5C30.4755 28.5 30.0278 28.9477 30.0278 29.5C30.0278 30.0523 30.4755 30.5 31.0278 30.5H34.0278C34.5801 30.5 35.0278 30.0523 35.0278 29.5C35.0278 28.9477 34.5801 28.5 34.0278 28.5H31.0278Z" fill="white"/>
<path fill-rule="evenodd" clip-rule="evenodd" d="M28.0278 33.5C30.237 33.5 32.0278 31.7091 32.0278 29.5C32.0278 27.2909 30.237 25.5 28.0278 25.5C25.8187 25.5 24.0278 27.2909 24.0278 29.5C24.0278 31.7091 25.8187 33.5 28.0278 33.5Z" fill="white"/>
<path fill-rule="evenodd" clip-rule="evenodd" d="M14.0278 18.5C13.4755 18.5 13.0278 18.9477 13.0278 19.5C13.0278 20.0523 13.4755 20.5 14.0278 20.5H17.0278C17.5801 20.5 18.0278 20.0523 18.0278 19.5C18.0278 18.9477 17.5801 18.5 17.0278 18.5H14.0278ZM23.0278 18.5C22.4755 18.5 22.0278 18.9477 22.0278 19.5C22.0278 20.0523 22.4755 20.5 23.0278 20.5H34.0278C34.5801 20.5 35.0278 20.0523 35.0278 19.5C35.0278 18.9477 34.5801 18.5 34.0278 18.5H23.0278Z" fill="white"/>
<path d="M20.0278 23.5C22.237 23.5 24.0278 21.7091 24.0278 19.5C24.0278 17.2909 22.237 15.5 20.0278 15.5C17.8187 15.5 16.0278 17.2909 16.0278 19.5C16.0278 21.7091 17.8187 23.5 20.0278 23.5Z" fill="white"/>
</svg>
