<svg width="40" height="40" viewBox="0 0 40 40" fill="none" xmlns="http://www.w3.org/2000/svg">
<rect x="0.5" y="0.5" width="39" height="39" rx="19.5" fill="#14161B"/>
<rect x="0.5" y="0.5" width="39" height="39" rx="19.5" stroke="#2C2E33"/>
<g clip-path="url(#clip0_102_9368)">
<path fill-rule="evenodd" clip-rule="evenodd" d="M15.7318 28.3329L18.3321 29.1067V28.0948L18.5444 27.8567H20.0302V29.0472V29.8805H18.4382L16.4747 28.9281L15.7318 28.3329Z" fill="#CDBDB2"/>
<path fill-rule="evenodd" clip-rule="evenodd" d="M24.2229 28.3329L21.6757 29.1067V28.0948L21.4635 27.8567H19.9776V29.0472V29.8805H21.5696L23.533 28.9281L24.2229 28.3329Z" fill="#CDBDB2"/>
<path fill-rule="evenodd" clip-rule="evenodd" d="M18.5454 26.1307L18.3331 28.0949L18.5984 27.8568H21.3578L21.6762 28.0949L21.464 26.1307L21.0395 25.833L18.9168 25.8926L18.5454 26.1307Z" fill="#393939"/>
<path fill-rule="evenodd" clip-rule="evenodd" d="M17.1124 12.8567L18.386 16.19L18.9698 25.8925H21.0393L21.6761 16.19L22.8436 12.8567H17.1124Z" fill="#F89C35"/>
<path fill-rule="evenodd" clip-rule="evenodd" d="M11.5402 20.1783L10.0543 24.9997L13.7689 24.7616H16.1569V22.6783L16.0507 18.3926L15.5201 18.8688L11.5402 20.1783Z" fill="#F89D35"/>
<path fill-rule="evenodd" clip-rule="evenodd" d="M14.3524 20.7141L18.7038 20.8332L18.2263 23.3332L16.1567 22.7379L14.3524 20.7141Z" fill="#D87C30"/>
<path fill-rule="evenodd" clip-rule="evenodd" d="M14.3524 20.7737L16.1567 22.6784V24.5832L14.3524 20.7737Z" fill="#EA8D3A"/>
<path fill-rule="evenodd" clip-rule="evenodd" d="M16.1566 22.7378L18.2793 23.333L18.9692 25.8926L18.4915 26.1902L16.1566 24.6426V22.7378Z" fill="#F89D35"/>
<path fill-rule="evenodd" clip-rule="evenodd" d="M16.1563 24.6426L15.7318 28.3331L18.5444 26.1307L16.1563 24.6426Z" fill="#EB8F35"/>
<path fill-rule="evenodd" clip-rule="evenodd" d="M18.7039 20.833L18.9693 25.8926L18.1732 23.3033L18.7039 20.833Z" fill="#EA8E3A"/>
<path fill-rule="evenodd" clip-rule="evenodd" d="M13.7164 24.7022L16.1575 24.6426L15.7329 28.3331L13.7164 24.7022Z" fill="#D87C30"/>
<path fill-rule="evenodd" clip-rule="evenodd" d="M11.2218 29.94L15.7323 28.3328L13.7158 24.7019L10.0543 24.9995L11.2218 29.94Z" fill="#EB8F35"/>
<path fill-rule="evenodd" clip-rule="evenodd" d="M18.3854 16.1902L16.1036 18.333L14.3524 20.714L18.7038 20.8926L18.3854 16.1902Z" fill="#E8821E"/>
<path fill-rule="evenodd" clip-rule="evenodd" d="M15.7318 28.3329L18.5444 26.1306L18.3321 28.0354V29.1068L16.4217 28.6901L15.7318 28.3329Z" fill="#DFCEC3"/>
<path fill-rule="evenodd" clip-rule="evenodd" d="M24.2229 28.3329L21.4635 26.1306L21.6757 28.0354V29.1068L23.5861 28.6901L24.2229 28.3329Z" fill="#DFCEC3"/>
<path fill-rule="evenodd" clip-rule="evenodd" d="M17.537 21.9043L18.1207 23.2734L16.0511 22.6782L17.537 21.9043Z" fill="#393939"/>
<path fill-rule="evenodd" clip-rule="evenodd" d="M11.1688 10.0591L18.3858 16.19L17.1653 12.8566L11.1688 10.0591Z" fill="#E88F35"/>
<path fill-rule="evenodd" clip-rule="evenodd" d="M11.1682 10.0591L10.213 13.3329L10.7437 16.9043L10.3722 17.1424L10.9029 17.6781L10.4783 18.0948L11.0621 18.69L10.6906 19.0472L11.5397 20.2377L15.5196 18.8686C17.4654 17.1226 18.4206 16.2297 18.3852 16.19C18.3498 16.1504 15.9441 14.1067 11.1682 10.0591Z" fill="#8E5A30"/>
<path fill-rule="evenodd" clip-rule="evenodd" d="M28.4144 20.1783L29.9003 24.9997L26.1856 24.7616H23.7977V22.6783L23.9039 18.3926L24.4345 18.8688L28.4144 20.1783Z" fill="#F89D35"/>
<path fill-rule="evenodd" clip-rule="evenodd" d="M25.6022 20.7139L21.2508 20.8329L21.7283 23.3329L23.7979 22.7377L25.6022 20.7139Z" fill="#D87C30"/>
<path fill-rule="evenodd" clip-rule="evenodd" d="M25.6022 20.7734L23.7979 22.6782V24.583L25.6022 20.7734Z" fill="#EA8D3A"/>
<path fill-rule="evenodd" clip-rule="evenodd" d="M23.798 22.7375L21.6753 23.3328L20.9854 25.8924L21.4631 26.1899L23.798 24.6423V22.7375Z" fill="#F89D35"/>
<path fill-rule="evenodd" clip-rule="evenodd" d="M23.7983 24.6426L24.2228 28.3331L21.4633 26.1902L23.7983 24.6426Z" fill="#EB8F35"/>
<path fill-rule="evenodd" clip-rule="evenodd" d="M21.2507 20.833L20.9853 25.8926L21.7814 23.3033L21.2507 20.833Z" fill="#EA8E3A"/>
<path fill-rule="evenodd" clip-rule="evenodd" d="M26.2382 24.7022L23.7971 24.6426L24.2216 28.3331L26.2382 24.7022Z" fill="#D87C30"/>
<path fill-rule="evenodd" clip-rule="evenodd" d="M28.7328 29.94L24.2222 28.3328L26.2388 24.7019L29.9003 24.9995L28.7328 29.94Z" fill="#EB8F35"/>
<path fill-rule="evenodd" clip-rule="evenodd" d="M21.5692 16.1899L23.8509 18.3328L25.6022 20.7138L21.2508 20.8924L21.5692 16.1899Z" fill="#E8821E"/>
<path fill-rule="evenodd" clip-rule="evenodd" d="M22.4176 21.9041L21.8339 23.2732L23.9035 22.6779L22.4176 21.9041Z" fill="#393939"/>
<path fill-rule="evenodd" clip-rule="evenodd" d="M28.7858 10.0591L21.5688 16.19L22.7893 12.8566L28.7858 10.0591Z" fill="#E88F35"/>
<path fill-rule="evenodd" clip-rule="evenodd" d="M28.7864 10.0591L29.7416 13.3329L29.2109 16.9043L29.5824 17.1424L29.0517 17.6781L29.4762 18.0948L28.8925 18.69L29.264 19.0472L28.4149 20.2377L24.435 18.8686C22.4892 17.1226 21.534 16.2297 21.5694 16.19C21.6048 16.1504 24.0104 14.1067 28.7864 10.0591Z" fill="#8E5A30"/>
</g>
<defs>
<clipPath id="clip0_102_9368">
<rect width="20" height="20" fill="white" transform="translate(10 10)"/>
</clipPath>
</defs>
</svg>
